<svg xmlns="http://www.w3.org/2000/svg" width="612.001" height="612" xml:space="preserve"><path d="M588.074 199.311c-11.954-12.377-25.671-16.74-35.288-18.225-8.256-62.36-15.939-94.828-275.988-94.828C16.75 86.258 0 125.46 0 193.498v11.605c0 18.411 14.925 33.336 33.336 33.336h83.427c18.411 0 33.336-14.925 33.336-33.336v-11.605c0-52.705 80.699-54.319 126.698-54.319 45.998 0 126.697 1.614 126.697 54.319v11.605c0 18.411 14.926 33.336 33.337 33.336h83.427c18.411 0 33.337-14.925 33.337-33.336v-4.464c6.146 1.51 13.907 4.794 20.776 11.905 16.747 17.347 22.305 50.861 16.068 96.927-10.815 79.816-42.181 108.325-75.585 117.813v-13.886c0-14.097-3.524-28.05-10.668-40.242-33.336-57.053-80.674-107.677-140.823-152.301v-33.717a4.776 4.776 0 0 0-4.762-4.762H309.12a4.745 4.745 0 0 0-4.762 4.762v33.527h-56.481v-33.527a4.776 4.776 0 0 0-4.762-4.762h-49.529a4.775 4.775 0 0 0-4.762 4.762v33.527C128.581 265.384 81.195 316.007 47.81 373.156c-7.144 12.192-10.668 26.146-10.668 40.242v31.384c0 44.72 36.242 80.961 80.961 80.961h315.793c44.018 0 79.744-35.135 80.855-78.884 53.54-12.54 83.912-56.224 94.562-134.831 7.154-52.796.005-90.718-21.239-112.717zm-229.347 214.92-31.774-11.313c3.371-6.792 5.314-14.421 5.314-22.522 0-28.003-22.716-50.72-50.767-50.72-28.003 0-50.767 22.717-50.767 50.72 0 28.051 22.764 50.768 50.767 50.768a50.525 50.525 0 0 0 28.037-8.453l17.429 28.648c-13.129 8.43-28.707 13.379-45.465 13.379-46.576 0-84.294-37.766-84.294-84.341 0-46.529 37.718-84.294 84.294-84.294 46.576 0 84.342 37.766 84.342 84.294-.001 12.04-2.568 23.47-7.116 33.834z"/></svg>